<?xml version="1.0" encoding="UTF-8"?>
<svg id="Livello_1" data-name="Livello 1" xmlns="http://www.w3.org/2000/svg" viewBox="0 0 423.68 253">
  <path d="M212.79,198.83s18.55,36.17,89.55,29.17,61,8,104-20,2-129-85-103-112.66-19.49-138.33-50.24S7.07-34.68.71,71.16s208.53,127.5,212.09,127.67Z" style="fill: #b9d4fc; stroke-width: 0px;"/>
  <g>
    <path d="M157.13,15.28c.35-.43.98-.49,1.41-.14.07.06,7.43,6.05,13.26,8.97,1.76.88,3.23.95,4.37.21,1.56-1.02,2.14-3.28,2.1-4.01-.54-1.87-11.77-13.31-20.92-13.31-2.1,0-3.76.67-5.08,2.06-2.67,2.81-3.1,7.75-3.15,9.98.16-.01.32-.05.49-.05h10.63c-1.7-1.28-2.85-2.22-2.97-2.31-.43-.35-.49-.98-.14-1.41Z" style="fill: #fff; stroke-width: 0px;"/>
    <path d="M211.35,38.16v22.85c0,1.6,1.3,2.9,2.9,2.9h18.46c.97,0,1.92-.4,2.59-1.11l.27-.28c1.81-1.9,2.86-4.39,2.96-7.01l.66-17.24c.03-.85-.28-1.64-.88-2.24-.6-.6-1.4-.92-2.24-.88l-23.45.84c-.81.48-1.27,1.28-1.27,2.17ZM216.47,46.78c.67-.48,1.61-.33,2.09.35l3.63,5.08c2.14-3.68,5.99-9.74,8.68-10.63.79-.26,1.64.16,1.9.95.26.79-.16,1.64-.95,1.9-1.46.49-5.4,6.23-8.16,11.3-.25.45-.71.75-1.23.78-.03,0-.06,0-.09,0-.48,0-.94-.23-1.22-.63l-5-7c-.48-.67-.33-1.61.35-2.09Z" style="fill: #fff; stroke-width: 0px;"/>
    <path d="M209.94,118.61c-.89.07-1.59.83-1.59,1.72v14.28c15.38-7.44,30.64-14.51,42.12-19.16l-40.53,3.16Z" style="fill: #fff; stroke-width: 0px;"/>
    <path d="M202.87,234.67c.1.12.32.33.69.33h2.16c.48,0,.9-.28,1.08-.72,2.95-7.07,7.75-18.21,10.67-22.97l-3.4-.13c-1.87,2.74-9.48,14.24-11.37,22.74-.06.26,0,.54.17.75Z" style="fill: #fff; stroke-width: 0px;"/>
    <path d="M195.86,196.13l1.53-.85s0,0,0,0l.04-.02h0s32.96-13.98,32.96-13.98l-17.2-46.75c-28.26,13.58-58.1,29.02-66.23,33.24-.11.06-.24.13-.35.18-1.1.57-1.73.9-1.81.94-.49.26-1.09.07-1.35-.42-.26-.49-.07-1.09.42-1.35.22-.12.72-.38,1.44-.75l-.99-22.73c-3.74,2.01-13.75,8.26-16.87,18.85-2.33,7.9-.4,16.63,5.73,25.97,20.25,30.86,62.26,7.91,62.68,7.68Z" style="fill: #fff; stroke-width: 0px;"/>
    <path d="M146.26,141.6c.11.25.11.53.02.77l1,22.98c3.72-1.94,10.17-5.27,18.22-9.38-2.26-2.8-8.23-10.54-8.19-13.86.04-4.1,3-1.9,4.52,0,1.35,1.68,6.98,9.7,8.26,11.53,1.25-.63,2.53-1.28,3.83-1.94,2.31-5.27,11.11-24.68,15.43-24.68,5,0,5,4,5,4l-9.28,15.07c5.57-2.79,11.4-5.67,17.28-8.55v-17.56c0-.5-.2-.96-.56-1.29s-.83-.5-1.33-.47l-53.79,3.65c-.71.05-1.26.66-1.23,1.37l.8,18.35s.01.02.02.03Z" style="fill: #fff; stroke-width: 0px;"/>
    <path d="M186.48,21.02c-.04.37-.1.73-.23,1.07-.5,1.34-1.8,2.74-5.08,2.74-.72,0-1.53-.07-2.45-.22-.4.53-.88,1.01-1.46,1.39-.68.44-1.62.83-2.85.83-.98,0-2.15-.25-3.51-.93-2.63-1.31-5.49-3.18-7.92-4.89h-13.37c-1.86,0-3.39,1.45-3.48,3.31l-2.44,47.12c-.08,1.46.44,2.84,1.45,3.89,1.01,1.05,2.38,1.63,3.83,1.61l45.59-.53c2.71-.03,5.26-1.1,7.17-3.02,1.91-1.91,2.98-4.45,3.02-7.15l.53-36.9c.04-2.39-.97-4.67-2.75-6.25-1.5-1.34-3.44-2.07-5.45-2.07h-5.22c-.74.13-1.56.2-2.48.2s-1.85-.06-2.9-.18ZM185.57,38.67c-2.16.06-5.3.49-8.34.99v20.34c0,.83-.67,1.5-1.5,1.5s-1.5-.67-1.5-1.5v-19.82c-3.61.65-6.51,1.27-6.57,1.29-.11.02-.21.03-.32.03-.69,0-1.31-.48-1.46-1.19-.17-.81.34-1.61,1.15-1.78.51-.11,12.57-2.69,18.46-2.86.84-.04,1.52.63,1.54,1.46.02.83-.63,1.52-1.46,1.54Z" style="fill: #fff; stroke-width: 0px;"/>
    <path d="M180.26,20.21c.03.59-.14,1.53-.52,2.52,1.85.22,4.09.14,4.64-1.34,1.01-2.73-3.07-8.97-7.53-11.52-3.88-2.22-7.68-2.33-10.13-2.06,7.17,3.86,13.44,10.53,13.54,12.4Z" style="fill: #fff; stroke-width: 0px;"/>
    <path d="M186.34,19s0,.01,0,.02c.04,0,.08-.01.12,0,2.12.25,3.86.24,5.16,0,1.49-.28,2.4-.87,2.61-1.75.73-3.01-5.01-9.35-10.24-11.31-4.89-1.83-7.73-.3-9.04.86.95.34,1.91.78,2.89,1.34,3.83,2.19,7.66,6.97,8.5,10.87Z" style="fill: #fff; stroke-width: 0px;"/>
    <path d="M75.62,160.72c4.97.8,9.06-2.46,9.1-2.5.37-.3.9-.3,1.27,0,.22.18,5.35,4.36,8.65,1.06.19-.19.44-.29.71-.29.07,0,.13,0,.2.02.33.07.6.3.73.61.07.16,1.84,4.15,8.83,2.4,1.55-.39,2.46-1.04,2.72-1.92.59-2.1-2.17-5.54-3.19-6.58-.23-.23-.33-.57-.27-.89.06-.32.28-.59.58-.73.78-.35,18.99-8.72,10.48-29.54-8.54-20.87-27.01-15.65-27.79-15.42-.46.14-.96-.08-1.18-.51-.05-.09-4.86-9.45-14.11-9.45-.22,0-.43-.07-.6-.2-.3-.22-7.62-5.48-17.86,1.04-5.89,3.75-12.44,17.59-8.8,26.29,2.92,6.96,11.57,9,25.03,5.89.48-.11.96.14,1.15.58.19.45.03.97-.38,1.23-.54.35-13.04,8.64-4.7,21.62,2.73,4.25,5.91,6.7,9.43,7.26Z" style="fill: #fff; stroke-width: 0px;"/>
    <path d="M194.5,12h8.84c4.57,0,7-1.74,7-3,0-1.95,0-6-10-6-7.28,0-10.81,1.8-12.25,2.86,2.42,1.6,4.83,3.83,6.41,6.14Z" style="fill: #fff; stroke-width: 0px;"/>
    <path d="M315.31,78.44c-1.76,2.84-3.91,7.29-5.1,13.27,2.12.31,4.77-.43,6.87-1.97,1.22-.9,3.26-2.83,3.26-5.74,0-4.06-3.57-5.24-5.04-5.56Z" style="fill: #fff; stroke-width: 0px;"/>
    <path d="M270,99.46v3.94c4.46.23,8.63-.17,12.07-2.37-3.09.22-7.56.1-12.07-1.57Z" style="fill: #fff; stroke-width: 0px;"/>
    <path d="M79.15,70.02c.32-.06.64.03.87.24.24.22.35.53.32.85,0,.03-.32,3.3,1.68,5.31,1.33,1.33,3.42,1.87,6.23,1.58.03,0,.07,0,.1,0,.24,0,.47.09.65.24.21.18.33.43.35.71,0,.08.45,7.65,5.02,11.51,2.16,1.82,4.94,2.54,8.27,2.15,2.99-.35,4.99-1.48,5.94-3.34,2.39-4.69-2.05-12.7-2.09-12.78-.16-.28-.17-.63-.03-.92.14-.29.42-.5.74-.56.07-.01,6.6-1.18,9.39-6.42,2.05-3.84,1.66-8.95-1.14-15.18-2.53-5.62-6.19-8.93-10.87-9.84-7.97-1.55-16.64,4.3-17.52,5.14-.3.29-.77.37-1.15.19-.46-.23-11.22-5.42-16.68,4.58-2.78,5.1-1.24,9.06.54,11.48,2.62,3.56,7.05,5.52,9.39,5.06Z" style="fill: #fff; stroke-width: 0px;"/>
    <path d="M231.48,180.11c.25.56.8.89,1.37.89.2,0,.41-.04.61-.13l44.38-19.72,4.61,2.12c.75.35,1.64.02,1.99-.74.35-.75.02-1.64-.73-1.99l-5.22-2.41c-.39-.18-.84-.18-1.24,0l-45,20c-.76.34-1.1,1.22-.76,1.98Z" style="fill: #fff; stroke-width: 0px;"/>
    <path d="M284.4,39.1c3.78,2.48,5.69,5.34,5.67,8.53-.06,8.07-12.71,14.96-13.25,15.24-.15.08-.31.12-.47.12-.36,0-.7-.19-.88-.53-.26-.49-.08-1.09.41-1.35.12-.07,12.14-6.61,12.19-13.5.02-2.79-2.03-5.36-6.1-7.65-3.28,1.29-6.51,3.08-9.59,5.37-11.74,8.74-17.84,22.07-15.55,33.97,1.44,7.51,4.75,12.98,9.81,16.25,7.04,4.55,15.59,3.56,18.19,3.12.59-.66,1.15-1.38,1.67-2.21,2.23-3.57,6.51-5.25,10.65-6.87,5.76-2.25,10.73-4.2,10.2-10.52-.31-3.68-1.45-6.35-2.65-9.18-1.31-3.08-2.71-6.37-3.13-11.27-.51-1.55-3.87-3.23-5.88-3.92-.52-.18-.8-.75-.62-1.27.18-.52.75-.8,1.27-.62.43.15,3.12,1.11,5.11,2.66.02-4.16.7-9.37,2.49-16.18-5.95-2.32-12.77-2.33-19.54-.19ZM280.51,52.45c.61-.92,1.48-1.42,1.94-1.11.46.31.34,1.3-.27,2.22-.61.92-1.48,1.42-1.94,1.11s-.34-1.3.27-2.22ZM281.51,70.99c-.73.12-1.43.18-2.1.18-5.24,0-8.61-3.3-8.77-3.46-.39-.39-.39-1.02,0-1.41s1.02-.39,1.41,0c.16.15,3.74,3.62,9.13,2.72.55-.09,1.06.28,1.15.82.09.54-.28,1.06-.82,1.15ZM296.95,65.83c.46.31.34,1.3-.27,2.22-.61.92-1.48,1.42-1.94,1.11s-.34-1.3.27-2.22c.61-.92,1.48-1.42,1.94-1.11Z" style="fill: #fff; stroke-width: 0px;"/>
    <path d="M137.21,216l-2.82-22.55c-1-1.2-1.96-2.49-2.88-3.9-3.05-4.65-5.1-9.18-6.16-13.55-.01,0-.02,0-.04,0-24.58-.82-36.35,3.84-39.37,5.29-.31.15-.48.48-.43.82l4.71,33.89h47Z" style="fill: #fff; stroke-width: 0px;"/>
    <path d="M250.68,212.57c-.89,3.88-1.95,11.97,2.83,17.37,5.2,5.89,15.8,7.18,31.49,3.86-.93-7.54-3.11-15.61-7.96-20.24l-26.36-1Z" style="fill: #fff; stroke-width: 0px;"/>
    <path d="M82.52,203.75c-2.68,0-5.72-.32-7.18-1.61-.65-.57-1-1.31-1-2.14,0-5.58,7.08-7.23,10.54-7.83l-.56-4c-2.55-.3-11.31-.69-16.13,7.34-2.05,3.42-2.24,6.68-.54,9.17,2.82,4.15,10.28,5.82,19.59,4.46l-.78-5.61c-.93.09-2.37.2-3.95.2Z" style="fill: #fff; stroke-width: 0px;"/>
    <path d="M193.42,218h-112.12c-.53,0-.96.43-.96.96v4.09c0,.53.43.96.96.96h106.8c1.77-2.13,3.57-4.14,5.32-6Z" style="fill: #fff; stroke-width: 0px;"/>
    <path d="M274.32,251h11.1c.15-2.24.45-8.34-.21-15.19-3.4.71-6.58,1.22-9.53,1.5l-1.35,13.69Z" style="fill: #fff; stroke-width: 0px;"/>
    <path d="M252,231.26c-5.27-5.97-4.34-14.41-3.37-18.77l-28.86-1.09c-1.79,2.46-6.06,11.53-11.11,23.65-.49,1.18-1.64,1.95-2.93,1.95h-2.16c-.88,0-1.7-.39-2.25-1.08-.55-.69-.76-1.58-.56-2.43,1.81-8.1,8.3-18.39,10.97-22.39l-8.12-.31c-7.79,7.17-26.38,25.74-27.22,40.21h95.94l1.34-13.53c-1.22.08-2.4.12-3.54.12-8.33,0-14.39-2.11-18.11-6.33Z" style="fill: #fff; stroke-width: 0px;"/>
    <path d="M148.9,78.92s.06,0,.09,0l45.59-.53c3.23-.04,6.27-1.32,8.56-3.6,2.28-2.28,3.56-5.31,3.61-8.54l.53-36.9c.04-2.97-1.2-5.8-3.42-7.78-1.87-1.66-4.28-2.58-6.78-2.58h-1.48c-.71,1.03-1.96,1.7-3.73,2h5.22c2.01,0,3.95.74,5.45,2.07,1.78,1.59,2.79,3.87,2.75,6.25l-.53,36.9c-.04,2.7-1.11,5.24-3.02,7.15-1.92,1.91-4.46,2.99-7.17,3.02l-45.59.53c-1.45.03-2.82-.55-3.83-1.61-1.01-1.05-1.53-2.43-1.45-3.89l2.44-47.12c.1-1.85,1.63-3.31,3.48-3.31h13.37c-1.01-.71-1.94-1.39-2.74-2h-10.63c-.17,0-.33.03-.49.05-.72.06-1.4.26-2.01.58-1.68.87-2.87,2.56-2.98,4.58l-2.44,47.12c-.1,2.02.61,3.93,2.01,5.38,1.38,1.43,3.22,2.22,5.21,2.22Z" style="fill: #dae3f7; stroke-width: 0px;"/>
    <path d="M189.35,127c-4.32,0-13.12,19.41-15.43,24.68,3.55-1.8,7.28-3.68,11.15-5.61l9.28-15.07s0-4-5-4Z" style="fill: #dae3f7; stroke-width: 0px;"/>
    <path d="M157.3,142.1c-.03,3.32,5.94,11.06,8.19,13.86,1.48-.75,3.01-1.53,4.59-2.34-1.28-1.82-6.91-9.84-8.26-11.53-1.52-1.9-4.48-4.1-4.52,0Z" style="fill: #dae3f7; stroke-width: 0px;"/>
    <path d="M281.18,69.01c-5.39.9-8.97-2.57-9.13-2.72-.39-.39-1.02-.39-1.41,0s-.39,1.02,0,1.41c.16.16,3.52,3.46,8.77,3.46.67,0,1.37-.05,2.1-.18.54-.09.91-.61.82-1.15-.09-.54-.6-.91-1.15-.82Z" style="fill: #1f1c2e; stroke-width: 0px;"/>
    <path d="M280.24,54.67c.46.31,1.33-.19,1.94-1.11.61-.92.73-1.91.27-2.22-.46-.3-1.33.19-1.94,1.11-.61.92-.73,1.91-.27,2.22Z" style="fill: #1f1c2e; stroke-width: 0px;"/>
    <path d="M294.74,69.17c.46.31,1.33-.19,1.94-1.11.61-.92.73-1.91.27-2.22-.46-.3-1.33.19-1.94,1.11-.61.92-.73,1.91-.27,2.22Z" style="fill: #1f1c2e; stroke-width: 0px;"/>
    <path d="M75.32,162.7c4.66.74,8.52-1.44,10-2.45,2.32,1.68,6.51,3.48,9.78,1.24.95,1.21,2.97,2.98,6.75,2.98,1.09,0,2.33-.15,3.73-.5,2.3-.57,3.69-1.69,4.16-3.32.77-2.71-1.46-5.92-2.8-7.53,4.29-2.43,18.26-12.1,10.33-31.5-8.21-20.06-25.51-17.61-29.42-16.77-1.38-2.35-6.37-9.67-15.19-9.85-1.59-1.05-9.43-5.48-19.85,1.15-6.74,4.29-13.71,18.88-9.57,28.75,2.16,5.15,8.01,10.46,23.48,7.84-1.03,1.04-2.15,2.38-3.11,3.99-2.31,3.89-4.03,10.14.89,17.8,3.06,4.76,6.7,7.51,10.82,8.16ZM70.89,131.84c.41-.26.57-.78.38-1.23-.19-.45-.67-.69-1.15-.58-13.46,3.11-22.12,1.07-25.03-5.89-3.65-8.7,2.9-22.54,8.8-26.29,10.24-6.52,17.56-1.27,17.86-1.04.17.13.38.2.6.2,9.25,0,14.06,9.35,14.11,9.45.22.43.72.65,1.18.51.78-.23,19.25-5.45,27.79,15.42,8.52,20.82-9.7,29.19-10.48,29.54-.3.13-.51.4-.58.73-.06.32.04.65.27.89,1.02,1.04,3.78,4.48,3.19,6.58-.25.89-1.17,1.54-2.72,1.92-6.98,1.75-8.76-2.24-8.83-2.4-.12-.31-.4-.54-.73-.61-.07-.01-.13-.02-.2-.02-.26,0-.52.1-.71.29-3.3,3.3-8.44-.88-8.65-1.06-.37-.3-.9-.31-1.27,0-.04.03-4.13,3.3-9.1,2.5-3.52-.56-6.69-3.01-9.43-7.26-8.34-12.98,4.16-21.27,4.7-21.62Z" style="fill: #1f1c2e; stroke-width: 0px;"/>
    <path d="M78.33,72.09c.06,1.44.45,3.9,2.26,5.73,1.59,1.61,3.91,2.36,6.85,2.25.29,2.38,1.41,8.36,5.63,11.92,2.15,1.82,4.78,2.73,7.84,2.73.64,0,1.29-.04,1.96-.12,3.7-.44,6.21-1.93,7.48-4.43,2.28-4.49-.29-10.88-1.54-13.5,2.3-.65,7.04-2.51,9.51-7.13,2.36-4.42,2-10.12-1.07-16.96-2.84-6.31-7.04-10.02-12.47-11.02-8.02-1.47-16.3,3.54-18.6,5.27-2.62-1.07-13.13-4.57-18.72,5.68-2.56,4.7-2.32,9.54.68,13.63,2.54,3.46,6.85,5.91,10.17,5.94ZM69.22,53.48c5.46-10.01,16.22-4.81,16.68-4.58.38.19.85.11,1.15-.19.88-.84,9.55-6.69,17.52-5.14,4.68.91,8.34,4.22,10.87,9.84,2.8,6.23,3.19,11.34,1.14,15.18-2.8,5.25-9.33,6.41-9.39,6.42-.32.05-.6.26-.74.56-.14.29-.13.64.03.92.05.08,4.48,8.09,2.09,12.78-.95,1.87-2.95,2.99-5.94,3.34-3.33.39-6.11-.33-8.27-2.15-4.58-3.86-5.02-11.44-5.02-11.51-.01-.27-.14-.53-.35-.71-.18-.16-.41-.24-.65-.24-.03,0-.07,0-.1,0-2.81.28-4.9-.25-6.23-1.58-2-2.01-1.68-5.28-1.68-5.31.04-.32-.08-.63-.32-.85-.23-.21-.56-.3-.87-.24-2.33.46-6.77-1.49-9.39-5.06-1.78-2.42-3.32-6.38-.54-11.48Z" style="fill: #1f1c2e; stroke-width: 0px;"/>
    <path d="M171.38,86.93l-3.44-2.5c-.39-.28-.86-.43-1.34-.43h-19.98c-1.26,0-2.28,1.02-2.27,2.28l.08,25.21c0,1.33,1.15,2.38,2.48,2.26l24.76-2.25c1.23-.11,2.15-1.19,2.06-2.42l-1.43-20.46c-.05-.67-.39-1.29-.93-1.68ZM164.52,105.84c-.22.11-.44.16-.67.16-.55,0-1.08-.3-1.34-.83l-2.36-4.71-4.18.51-.66,2.87c-.19.81-.99,1.31-1.8,1.12-.81-.19-1.31-.99-1.12-1.8l3-13c.14-.62.66-1.08,1.28-1.15.63-.08,1.24.25,1.52.82l7,14c.37.74.07,1.64-.67,2.01Z" style="fill: #dae3f7; stroke-width: 0px;"/>
    <polygon points="156.69 97.86 158.72 97.61 157.37 94.9 156.69 97.86" style="fill: #dae3f7; stroke-width: 0px;"/>
    <path d="M199.09,82.92c-6.98-.12-22.74-.03-22.74,3.08l.86,21.53c.08,1.91,1.69,3.39,3.61,3.31l19.12-.9c1.89-.09,3.35-1.68,3.28-3.57l-.75-20.13c-.07-1.83-1.55-3.29-3.38-3.32ZM194.73,101.16c-.32,1.86-1.7,4.06-4.05,4.8-.45.14-.98.24-1.57.24-1.45,0-3.28-.6-5.32-2.64-.59-.59-.59-1.54,0-2.12.59-.59,1.54-.59,2.12,0,1.23,1.23,3.01,2.45,4.57,1.3,1.11-.82,1.48-2.36,1.29-2.73-.27-.18-1.71-.16-2.58-.15-2.03.03-4.33.06-5.53-1.58-.76-1.04-.84-2.44-.23-4.26.75-2.25,1.99-3.64,3.68-4.14,2.75-.81,5.39,1.21,5.68,1.44.65.52.75,1.46.23,2.11-.52.65-1.46.75-2.1.24-.43-.34-1.9-1.23-2.97-.91-.69.21-1.25.95-1.67,2.21-.34,1.02-.25,1.45-.19,1.54.28.39,2.16.36,3.07.35,1.72-.02,3.35-.04,4.5.83.95.73,1.34,1.99,1.08,3.47Z" style="fill: #dae3f7; stroke-width: 0px;"/>
    <path d="M206.35,73l1.73,33.57c.09,1.77,1.6,3.14,3.37,3.05l31.54-1.55c1.2-.06,2.26-.77,2.76-1.86.78-1.7,1.59-4.96,1.59-11.2v-17.66s0-6.34-11-6.34-30-1-30,2ZM235.11,97.32c-.29.44-.77.68-1.26.68-.28,0-.56-.08-.81-.24l-8.68-5.63v6.32c0,.83-.67,1.5-1.5,1.5s-1.5-.67-1.5-1.5v-16.95c0-.83.67-1.5,1.5-1.5s1.5.67,1.5,1.5v5.2l5.46-5.27c.59-.58,1.54-.56,2.12.04.58.6.56,1.55-.04,2.12l-6.11,5.9,8.88,5.76c.7.45.89,1.38.44,2.07Z" style="fill: #dae3f7; stroke-width: 0px;"/>
    <path d="M212.03,34.04l-.19.1c-1.53.77-2.49,2.31-2.49,4.02v22.85c0,2.7,2.2,4.9,4.9,4.9h18.46c1.52,0,2.99-.63,4.03-1.73l.27-.28c2.14-2.25,3.39-5.2,3.51-8.31l.66-17.24c.05-1.39-.48-2.75-1.46-3.73s-2.34-1.52-3.73-1.47l-23.68.85-.28.04ZM236.06,35.15c.84-.04,1.64.28,2.24.88.6.6.91,1.4.88,2.24l-.66,17.24c-.1,2.62-1.15,5.11-2.96,7.01l-.27.28c-.67.7-1.61,1.11-2.59,1.11h-18.46c-1.6,0-2.9-1.3-2.9-2.9v-22.85c0-.89.46-1.69,1.27-2.17l23.45-.84Z" style="fill: #1f1c2e; stroke-width: 0px;"/>
    <path d="M152.27,9.06c1.32-1.39,2.98-2.06,5.08-2.06,9.15,0,20.37,11.44,20.92,13.31.04.73-.54,2.99-2.1,4.01-1.14.74-2.6.67-4.37-.21-5.83-2.91-13.19-8.91-13.26-8.97-.43-.35-1.06-.29-1.41.14-.35.43-.29,1.06.14,1.41.12.1,1.27,1.03,2.97,2.31.81.61,1.73,1.29,2.74,2,2.42,1.71,5.29,3.58,7.92,4.89,1.36.68,2.52.93,3.51.93,1.23,0,2.17-.39,2.85-.83.58-.38,1.06-.86,1.46-1.39.92.15,1.74.22,2.45.22,3.28,0,4.59-1.4,5.08-2.74.12-.33.19-.69.23-1.07,1.05.12,2.02.18,2.9.18s1.74-.07,2.48-.2c1.78-.3,3.02-.97,3.73-2,.26-.38.47-.8.59-1.28.27-1.13.04-2.41-.54-3.72h7.71c5.91,0,9-2.52,9-5,0-1.98,0-8-12-8-8.84,0-12.73,2.55-14.09,3.77-.53-.27-1.06-.52-1.56-.71-6.96-2.61-10.67.66-11.89,2.1-4.47-1.03-8.11-.11-9.15.21-2.13-.85-4.28-1.37-6.31-1.37-2.64,0-4.84.91-6.53,2.69-3.46,3.65-3.72,9.88-3.71,11.94.61-.32,1.29-.52,2.01-.58.05-2.23.49-7.17,3.15-9.98ZM200.35,3c10,0,10,4.05,10,6,0,1.26-2.43,3-7,3h-8.84c-1.58-2.31-3.99-4.55-6.41-6.14,1.44-1.05,4.97-2.86,12.25-2.86ZM184,5.94c5.23,1.96,10.97,8.3,10.24,11.31-.21.88-1.13,1.47-2.61,1.75-1.3.25-3.04.26-5.16,0-.04,0-.08,0-.12,0,0,0,0-.01,0-.02-.84-3.9-4.66-8.68-8.5-10.87-.98-.56-1.94-.99-2.89-1.34,1.31-1.16,4.15-2.69,9.04-.86ZM176.85,9.87c4.46,2.55,8.54,8.79,7.53,11.52-.55,1.49-2.78,1.56-4.64,1.34.38-.99.55-1.93.52-2.52-.09-1.87-6.36-8.54-13.54-12.4,2.44-.27,6.24-.16,10.13,2.06Z" style="fill: #1f1c2e; stroke-width: 0px;"/>
    <path d="M185.49,35.67c-5.89.17-17.94,2.75-18.46,2.86-.81.17-1.33.97-1.15,1.78.15.7.77,1.19,1.46,1.19.1,0,.21-.01.32-.03.06-.01,2.96-.63,6.57-1.29v19.82c0,.83.67,1.5,1.5,1.5s1.5-.67,1.5-1.5v-20.34c3.04-.5,6.18-.93,8.34-.99.83-.02,1.48-.72,1.46-1.54-.02-.83-.7-1.49-1.54-1.46Z" style="fill: #1f1c2e; stroke-width: 0px;"/>
    <path d="M221.13,55.87c.28.4.74.63,1.22.63.03,0,.06,0,.09,0,.52-.03.98-.33,1.23-.78,2.76-5.06,6.7-10.81,8.16-11.3.79-.26,1.21-1.11.95-1.9-.26-.79-1.11-1.21-1.9-.95-2.69.9-6.54,6.95-8.68,10.63l-3.63-5.08c-.48-.67-1.42-.83-2.09-.35-.67.48-.83,1.42-.35,2.09l5,7Z" style="fill: #dae3f7; stroke-width: 0px;"/>
    <path d="M193.64,97.69c-1.14-.87-2.77-.85-4.5-.83-.91.01-2.79.04-3.07-.35-.06-.08-.15-.52.19-1.54.42-1.26.98-2,1.67-2.21,1.07-.32,2.54.57,2.97.91.65.51,1.59.41,2.1-.24.52-.65.41-1.59-.23-2.11-.29-.23-2.93-2.26-5.68-1.44-1.69.5-2.93,1.89-3.68,4.14-.61,1.82-.53,3.21.23,4.26,1.2,1.64,3.5,1.61,5.53,1.58.86-.01,2.3-.03,2.58.15.2.37-.17,1.91-1.29,2.73-1.55,1.15-3.34-.07-4.57-1.3-.59-.59-1.54-.59-2.12,0-.59.59-.59,1.54,0,2.12,2.04,2.04,3.88,2.64,5.32,2.64.59,0,1.12-.1,1.57-.24,2.34-.74,3.72-2.94,4.05-4.8.26-1.48-.14-2.75-1.08-3.47Z" style="fill: #1f1c2e; stroke-width: 0px;"/>
    <path d="M158.19,89.83c-.28-.57-.89-.9-1.52-.82-.63.07-1.14.54-1.28,1.15l-3,13c-.19.81.32,1.61,1.12,1.8.81.19,1.61-.32,1.8-1.12l.66-2.87,4.18-.51,2.36,4.71c.26.53.79.83,1.34.83.23,0,.45-.05.67-.16.74-.37,1.04-1.27.67-2.01l-7-14ZM156.69,97.86l.68-2.96,1.35,2.71-2.04.25Z" style="fill: #1f1c2e; stroke-width: 0px;"/>
    <path d="M234.66,95.24l-8.88-5.76,6.11-5.9c.6-.58.61-1.53.04-2.12-.58-.6-1.53-.61-2.12-.04l-5.46,5.27v-5.2c0-.83-.67-1.5-1.5-1.5s-1.5.67-1.5,1.5v16.95c0,.83.67,1.5,1.5,1.5s1.5-.67,1.5-1.5v-6.32l8.68,5.63c.25.16.53.24.81.24.49,0,.97-.24,1.26-.68.45-.7.25-1.62-.44-2.07Z" style="fill: #1f1c2e; stroke-width: 0px;"/>
  </g>
  <path d="M280.2,112.74s20.15,15.26,18.15,31.26-10,58-10,58l.79,12.03s12.5-6.65,17.36-4.84c0,0,5.93-.68,6.89-3.94s12.96,2.74,16.96-.26,7-10,4-12-7-8-6-10,7.44-5.98,7.22-9.49,1.23-5.32,0-7.91-4.22-8.6-3.22-12.6,4.89-15.78,4.45-18.39-2.45-11.61-2.45-11.61l-2.23-23.54-52.77,8.54.85,4.74Z" style="fill: #fff; stroke-width: 0px;"/>
  <path d="M316.48,76.67c.92-1.28,1.55-1.94,1.58-1.97.39-.39.38-1.03-.01-1.41-.39-.39-1.02-.39-1.41,0-.42.42-10.21,10.56-9.25,30.26.51,10.36,2.15,16.59,3.36,21.14,1.06,4.03,1.77,6.7,1.11,9.88-.51,2.47-1.75,5.01-2.94,7.47-2.26,4.64-4.59,9.43-2.49,14.34l.42.98c2.74,6.37,4.25,9.88,1.6,15.18-.31.61-.61,1.2-.9,1.76-2.6,5.04-4.48,8.68-1.9,17.06,2.61,8.49.86,17.18-.92,18.9-.4.38-.41,1.02-.03,1.41.2.2.46.31.72.31s.5-.09.69-.28c2.42-2.33,4.23-11.87,1.45-20.93-2.34-7.61-.79-10.6,1.77-15.56.29-.57.6-1.16.91-1.78,3.07-6.13,1.23-10.4-1.56-16.87l-.42-.97c-1.74-4.06.29-8.25,2.45-12.67,1.25-2.57,2.54-5.23,3.1-7.94.75-3.65-.04-6.65-1.14-10.8-1.18-4.46-2.79-10.58-3.29-20.73-.18-3.59.03-6.85.48-9.78.44.07.88.11,1.34.11,2.34,0,4.92-.86,7.06-2.43,2.63-1.93,4.08-4.54,4.08-7.35,0-4.47-3.26-6.57-5.86-7.33ZM317.08,89.74c-2.1,1.54-4.75,2.28-6.87,1.97,1.18-5.99,3.34-10.43,5.1-13.27,1.47.31,5.04,1.49,5.04,5.56,0,2.91-2.04,4.85-3.26,5.74Z" style="fill: #1f1c2e; stroke-width: 0px;"/>
  <path d="M336.78,127.15c-2.97-7.93-3.94-32.16-3.94-42.65,0-21.61-8.59-37.05-25.54-45.89-10.61-5.53-24.45-3.57-36.12,5.12-12.35,9.19-18.75,23.31-16.32,35.96,1.55,8.08,5.15,13.99,10.7,17.56.8.52,1.61.96,2.43,1.36v4.65c-.84-.07-1.69-.16-2.54-.25-2.41-.27-4.46.34-6.11,1.81-2.41,2.15-3.36,5.7-3.75,8.23l-45.82,3.57c-1.93.15-3.44,1.78-3.44,3.72v15.25c-.67.32-1.33.65-2,.97v-16.59c0-1.04-.44-2.04-1.2-2.76-.76-.71-1.79-1.08-2.83-1.01l-53.79,3.65c-1.78.12-3.17,1.67-3.09,3.45l.79,18.12c-3.07,1.51-15.04,8.11-18.69,20.48-1.14,3.87-1.34,7.91-.61,12.09-24.04-.75-35.87,3.59-39.85,5.49-1.1.53-1.72,1.69-1.55,2.9l.52,3.77c-3.42-.27-12.5-.1-17.56,8.33-2.48,4.13-2.65,8.15-.48,11.33,2.58,3.79,8.01,5.82,15.12,5.82,2,0,4.15-.17,6.39-.5l.68,4.87h-6.89c-1.63,0-2.96,1.33-2.96,2.96v4.09c0,1.63,1.33,2.96,2.96,2.96h105.18c-6.5,8.18-12.14,17.67-12.14,26v1h112.91l.09-.9c.11-1.19,2.41-26.54-7.49-38.42l8.46.32.83.03.18-.81c.09-.4,9.05-40.33,13.01-66.07,2.2-14.29-2.84-23.03-7.45-27.84-6.72-7.01-17.05-10.49-27.65-9.31-2.12.24-5.4,1.18-9.54,2.67.39-2.13,1.22-4.79,2.99-6.37,1.22-1.09,2.7-1.51,4.55-1.31,7.5.83,15.18,1.1,20.62-4.47.12-.03.2-.04.23-.05.48-.12.78-.57.74-1.05.48-.58.94-1.2,1.37-1.89,1.88-3.01,5.85-4.56,9.69-6.06,5.68-2.22,12.11-4.74,11.46-12.55-.33-4-1.59-6.95-2.8-9.8-2.53-5.94-5.14-12.08-.75-29.01.2.1.4.18.59.28,16.23,8.47,24.46,23.31,24.46,44.11,0,8.44.75,34.51,4.06,43.35,1.76,4.69.14,10.79-1.28,16.18-.92,3.45-1.78,6.71-1.78,9.47,0,4.16,1.04,7.03,1.87,9.33.61,1.68,1.13,3.12,1.13,4.67,0,5.19-1.84,9.19-5.62,12.22-3.86,3.09-.68,7.4,1.88,10.87,1.35,1.83,2.75,3.73,2.75,4.91,0,3.62-2.72,11.17-9.27,13.04-.53.15-.84.71-.69,1.24.13.44.53.73.96.73.09,0,.18-.01.28-.04,7.58-2.17,10.73-10.81,10.73-14.96,0-1.84-1.52-3.91-3.14-6.1-2.78-3.77-4.43-6.37-2.24-8.12,4.29-3.43,6.38-7.94,6.38-13.78,0-1.9-.61-3.57-1.25-5.35-.82-2.27-1.75-4.84-1.75-8.65,0-2.5.83-5.64,1.71-8.96,1.5-5.67,3.21-12.1,1.22-17.39ZM208.35,120.33c0-.9.7-1.65,1.59-1.72l40.53-3.16c-11.49,4.65-26.74,11.72-42.12,19.16v-14.28ZM146.67,121.84l53.79-3.65c.5-.03.97.13,1.33.47s.56.8.56,1.29v17.56c-5.88,2.87-11.71,5.76-17.28,8.55-3.86,1.93-7.6,3.81-11.15,5.61-1.31.66-2.58,1.31-3.83,1.94-1.58.8-3.11,1.58-4.59,2.34-8.05,4.11-14.5,7.45-18.22,9.38l-1-22.98c.09-.24.1-.52-.02-.77,0-.01-.01-.02-.02-.03l-.8-18.35c-.03-.71.52-1.32,1.23-1.37ZM127.46,162.48c3.12-10.58,13.14-16.84,16.87-18.85l.99,22.73c-.72.37-1.21.63-1.44.75-.49.26-.68.86-.42,1.35.26.49.86.68,1.35.42.08-.04.71-.37,1.81-.94.11-.06.23-.12.35-.18,8.13-4.23,37.96-19.66,66.23-33.24l17.2,46.75-32.96,13.98h0s-.04.02-.04.02c0,0,0,0,0,0l-1.53.85c-.42.24-42.42,23.19-62.68-7.68-6.13-9.34-8.05-18.08-5.73-25.97ZM217.47,211.32c-2.91,4.76-7.72,15.9-10.67,22.97-.18.43-.6.72-1.08.72h-2.16c-.37,0-.59-.21-.69-.33-.17-.21-.23-.48-.17-.75,1.9-8.5,9.5-19.99,11.37-22.74l3.4.13ZM198.44,210.59l2.31.09c-1.58,1.48-3.43,3.28-5.41,5.32h-56.1l-2.5-20c19.82,19.83,51.19,6.28,58.54,2.68l-.41,8.39c.1,1.94,1.64,3.46,3.58,3.53ZM85.16,194.16l1.03,7.4c-3.3.32-8.1.33-9.53-.92-.28-.25-.32-.46-.32-.64,0-2.84,2.89-4.76,8.82-5.84ZM67.66,204.69c-1.7-2.5-1.51-5.76.54-9.17,4.82-8.03,13.58-7.64,16.13-7.34l.56,4c-3.46.6-10.54,2.24-10.54,7.83,0,.83.34,1.57,1,2.14,1.46,1.29,4.5,1.61,7.18,1.61,1.57,0,3.01-.11,3.95-.2l.78,5.61c-9.31,1.36-16.76-.32-19.59-4.46ZM85.51,182.11c-.05-.35.13-.68.43-.82,3.02-1.45,14.79-6.11,39.37-5.29.01,0,.03,0,.04,0,1.06,4.38,3.11,8.9,6.16,13.55.92,1.4,1.88,2.7,2.88,3.9l2.82,22.55h-47l-4.71-33.89ZM81.3,224c-.53,0-.96-.43-.96-.96v-4.09c0-.53.43-.96.96-.96h112.12c-1.75,1.86-3.55,3.87-5.32,6h-106.8ZM272.31,251h-95.94c.84-14.47,19.43-33.04,27.22-40.21l8.12.31c-2.67,3.99-9.16,14.29-10.97,22.39-.19.86.01,1.75.56,2.43.55.69,1.37,1.08,2.25,1.08h2.16c1.29,0,2.43-.76,2.93-1.95,5.05-12.12,9.33-21.19,11.11-23.65l28.86,1.09c-.97,4.36-1.9,12.8,3.37,18.77,3.72,4.22,9.79,6.33,18.11,6.33,1.14,0,2.32-.04,3.54-.12l-1.34,13.53ZM285.42,251h-11.1l1.35-13.69c2.95-.28,6.13-.79,9.53-1.5.66,6.85.37,12.95.21,15.19ZM284.99,233.81c-15.69,3.31-26.29,2.02-31.49-3.86-4.78-5.41-3.72-13.49-2.83-17.37l26.36,1c4.84,4.63,7.03,12.7,7.96,20.24ZM277.24,158.13c.39-.17.84-.17,1.24,0l5.22,2.41c.75.35,1.08,1.24.73,1.99-.35.75-1.24,1.08-1.99.74l-4.61-2.12-44.38,19.72c-.2.09-.4.13-.61.13-.57,0-1.12-.33-1.37-.89-.34-.76,0-1.64.76-1.98l45-20ZM270,103.4v-3.94c4.51,1.67,8.99,1.79,12.07,1.57-3.44,2.2-7.61,2.6-12.07,2.37ZM301.45,55.48c-1.99-1.55-4.68-2.51-5.11-2.66-.52-.18-1.09.1-1.27.62-.18.52.1,1.09.62,1.27,2.01.69,5.37,2.37,5.88,3.92.42,4.9,1.82,8.19,3.13,11.27,1.21,2.83,2.34,5.5,2.65,9.18.53,6.32-4.44,8.27-10.2,10.52-4.14,1.62-8.42,3.3-10.65,6.87-.52.83-1.08,1.55-1.67,2.21-2.6.44-11.15,1.43-18.19-3.12-5.06-3.27-8.36-8.74-9.81-16.25-2.29-11.9,3.82-25.24,15.55-33.97,3.08-2.29,6.31-4.07,9.59-5.37,4.06,2.29,6.12,4.86,6.1,7.65-.05,6.89-12.07,13.43-12.19,13.5-.49.26-.67.87-.41,1.35.18.34.53.53.88.53.16,0,.32-.04.47-.12.54-.29,13.19-7.17,13.25-15.24.02-3.19-1.88-6.05-5.67-8.53,6.76-2.14,13.59-2.13,19.54.19-1.79,6.82-2.47,12.02-2.49,16.18Z" style="fill: #1f1c2e; stroke-width: 0px;"/>
  <path d="M318.27,140.42c3.2-7.44-.96-12.81-1.13-13.04-.34-.43-.97-.5-1.4-.16-.43.34-.51.97-.17,1.4.15.19,3.58,4.7.87,11.01l-.7,1.61c-2.92,6.7-6.23,14.3-2.16,19.38,3.65,4.57,4.15,10.96,1.18,15.21-3.7,5.28-4.22,12.76-1.29,18.62,2.72,5.44-1.72,13.16-1.76,13.24-.28.48-.12,1.09.36,1.37.16.09.33.14.5.14.34,0,.68-.18.86-.5.21-.35,5.03-8.73,1.83-15.14-3.01-6.02-1.6-12.66,1.14-16.58,3.52-5.04,3.01-12.27-1.25-17.6-3.32-4.15-.39-10.85,2.43-17.33l.7-1.62Z" style="fill: #1f1c2e; stroke-width: 0px;"/>
</svg>