<?xml version="1.0" encoding="utf-8"?>
<!-- Generator: Adobe Illustrator 28.3.0, SVG Export Plug-In . SVG Version: 6.00 Build 0)  -->
<svg version="1.1" id="Livello_1" xmlns="http://www.w3.org/2000/svg" xmlns:xlink="http://www.w3.org/1999/xlink" x="0px" y="0px"
	 viewBox="0 0 300 259" style="enable-background:new 0 0 300 259;" xml:space="preserve">
<style type="text/css">
	.st0{fill:#FFFFFF;}
	.st1{fill:#DAE3F7;}
	.st2{fill:#1F1F1F;}
</style>
<g>
	<path class="st0" d="M181.4,80.5c2,1.4,3.1,3,3.6,5.1c0.1,0.4,0.2,0.7,0.2,1.1c0.4,3.7,1.1,7.3,1.8,11.9c2.2-3.6,4.1-6.3,5.6-9.2
		c1.4-2.7,3.3-3.9,6.4-3.7c2.5,0.2,4.9,0,7.2-0.5c4.1-0.9,8-2.8,11.5-5.5C229.4,70.7,233,56,227,42.1c-4.6-10.6-17.5-19.9-32.4-17.7
		c-11.9,1.8-22.8,11.3-25.7,22.9C165.6,61.1,171.4,73.4,181.4,80.5z M212.8,50.5c2.4-0.1,4.6,2.2,4.6,4.8c0,2.4-2.2,4.5-4.6,4.5
		c-2.3-0.1-4.4-2.2-4.4-4.6C208.4,52.7,210.4,50.5,212.8,50.5z M198.6,50.5c2.5-0.1,4.8,2,5,4.5c0.1,2.4-2.3,4.8-4.7,4.8
		c-2.4-0.1-4.6-2.2-4.6-4.5C194.3,52.8,196.3,50.6,198.6,50.5z M185.1,50.4c2.4,0,4.6,2.4,4.4,5c-0.1,2.7-1.8,4.1-4.3,4.3
		c-2.4,0.3-4.7-2.2-4.6-4.7C180.7,52.6,182.8,50.4,185.1,50.4z"/>
	<path class="st0" d="M231.2,180.6c4.6-1,5.7-4.9,2.7-8.5c-3.5-4.1-7-8.1-10.4-12.3c-11.9-15-21.3-31.2-24.4-50.5
		c-0.9-5.7-2.5-11.2-4-17.7c-2.5,4.1-4.6,7.5-6.7,10.8c-0.6,0.9-1.1,2-2.4,1.8c-1.4-0.2-1.4-1.5-1.6-2.5c-0.8-5-1.6-10-2.4-15
		c-0.1-0.4-0.2-0.8-0.3-1.1c-0.3-0.9-0.8-1.7-1.8-2.3c-14.6-9.4-19.1-29-11-44.2c1.1-2,0.8-3.1-1-4.6
		c-12.7-10.3-27.1-15.3-43.5-15.3c-20.4-0.1-38.9,9.6-51.1,24.7c-11.3,14-17.2,32.6-14.3,52.6c1.6,11.4,4.7,22.5,7.1,33.8
		c2.1,10.1,5.2,20,5.3,30.4c0,4.1-0.2,8.2-0.5,12.3c-1.1,11.9-3.8,23.4-7.1,34.9c-2.2,7.7,0.1,10.1,7.9,8.2c0.3-0.1,0.6-0.2,0.9-0.2
		c22.4-5,44.9-10,67.3-15c11.1-2.5,22.3-5,33.4-7.5C192.8,189.2,212,184.9,231.2,180.6z M162.3,100c2.5,0.2,3.5,1.8,3.5,4.1
		c-0.3,2.4-1.5,3.8-4,3.7c-2.6-0.1-3.8-1.6-3.8-4.2C158,101.2,159.8,99.7,162.3,100z M99.6,121.8c-2.2,0-4.1-1.8-4.1-4.1
		c0.1-2.4,1.3-3.8,3.7-4.1c2.1-0.2,4.3,1.8,4.4,3.9C103.7,119.6,101.7,121.8,99.6,121.8z M167.1,142.5c-1.6,0.9-2.1-0.9-2.7-2
		c-6.3-10.8-18-16.2-29.8-13.7c-12,2.6-20.4,12.3-21.7,25c-0.1,1.2,0.4,3.3-1.7,3c-1.6-0.2-1.4-1.9-1.3-3.2
		c1.4-16.6,14.2-28.5,32.3-28.5c10,0.5,19.1,5.4,24.8,15.9C167.5,140.1,168.8,141.6,167.1,142.5z"/>
	<path class="st0" d="M100.3,20.5c6.2-2.4,12.8-3.6,19.4-4.4c1.9-0.2,2.2-1.2,1.9-2.9c-1.1-5.9-7-10.4-13.2-10
		c-6,0.5-11.1,6-11.1,12.9c0,0.3,0.1,1.5,0.3,2.7C97.9,20.3,98.6,21.2,100.3,20.5z"/>
	<path class="st1" d="M68.3,159.7c-0.4-10.3-3.2-20.1-5.3-30.1c-2.4-11.3-5.7-22.3-7.1-33.8c-2.3-19,2.2-36.2,13.5-51.7
		c0.5-0.6,1-1.3,1.5-1.9C56.7,36,20.8,46.1,8.5,64.5c-12.2,18.2-23.6,62.8,59.6,106.9C68.4,167.6,68.5,163.7,68.3,159.7z"/>
	<path class="st1" d="M256.8,84.4c-11-0.4-25.8,0.1-41.6,0.6c-4.2,2.2-8.9,3.6-14,4c-1.8,0.1-3.4,0.2-2.7,2.7
		c3.2,13,4.9,26.5,10.4,38.9c5,11.2,12.2,20.9,19.8,30.5c2.5,3.1,5.2,6,7.7,9.1c4.7,5.6,2.8,11.8-4.3,13.4
		c-18.7,4.3-37.3,8.4-56,12.5c-3.2,0.7-4.5,1.6-4.5,5.3c0,2.7-0.2,5.3-0.7,7.7c78.4,16.7,109.1-12.5,122.9-48
		C310.7,117.4,291.4,85.6,256.8,84.4z"/>
	<path class="st2" d="M176,196.1c18.7-4,37.4-8.2,56-12.5c7.1-1.6,9-7.8,4.3-13.4c-2.5-3-5.3-6-7.7-9.1
		c-7.6-9.5-14.8-19.2-19.8-30.5c-5.5-12.4-7.2-25.9-10.4-38.9c-0.6-2.5,1-2.6,2.7-2.7c5.1-0.3,9.8-1.7,14-4
		C225.9,79.3,233,68,233,54.8c-0.1-1.6,0-3.3-0.3-4.8c-2.6-13.3-10.1-22.9-23-27.1c-13.1-4.2-25.1-1.3-35,8.6
		c-2.2,2.2-3.3,1.8-5.5,0.1c-11.9-9.5-25.4-14.7-40.6-15.4c-2.3-0.1-3.5-0.8-4-3.2c-0.7-3.7-2.3-6.9-5.3-9.3
		c-5.1-4.1-12.2-4.5-17.8-1.2c-5.4,3.2-8.3,10-6.9,16.5c0.4,2.1,1,3.9-1.6,5.2c-8.8,4.4-16.1,10.6-22.1,18.3c-0.5,0.6-1,1.2-1.5,1.9
		C58.1,59.6,53.5,76.9,55.9,95.9c1.4,11.4,4.7,22.5,7.1,33.8c2.1,10,5,19.8,5.3,30.1c0.1,3.9,0,7.8-0.3,11.7
		c-0.9,12-3.7,23.7-7.1,35.2c-2.7,8.9,0.7,15.4,11.5,12.6c10.6-2.8,21.4-4.8,32.1-7.2c2.8-0.6,4.3-0.4,5.7,2.7
		c2.6,6,6.9,11,12.6,14.2c11.1,6.3,22.5,6.5,33.5,0c8-4.7,12.8-11.6,14.5-20c0.5-2.5,0.7-5,0.7-7.7
		C171.4,197.6,172.8,196.7,176,196.1z M194.6,24.4c14.9-2.2,27.9,7.1,32.4,17.7c6,13.9,2.4,28.6-9.3,37.7c-3.5,2.7-7.3,4.6-11.5,5.5
		c-2.3,0.5-4.7,0.7-7.2,0.5c-3.1-0.2-5,0.9-6.4,3.7c-1.5,2.9-3.4,5.6-5.6,9.2c-0.7-4.6-1.4-8.2-1.8-11.9c0-0.4-0.1-0.8-0.2-1.1
		c-0.5-2.1-1.6-3.7-3.6-5.1c-10-7.1-15.8-19.4-12.4-33.1C171.8,35.7,182.7,26.2,194.6,24.4z M108.5,3.2c6.1-0.5,12.1,4.1,13.2,10
		c0.3,1.7-0.1,2.7-1.9,2.9c-6.6,0.8-13.1,2-19.4,4.4c-1.7,0.7-2.4-0.2-2.7-1.7c-0.2-1.2-0.2-2.3-0.3-2.7
		C97.4,9.2,102.5,3.7,108.5,3.2z M140.1,200.9c-22.4,5-44.9,10-67.3,15c-0.3,0.1-0.6,0.1-0.9,0.2c-7.8,1.9-10.2-0.5-7.9-8.2
		c3.3-11.5,6-23.1,7.1-34.9c0.4-4.1,0.6-8.2,0.5-12.3c-0.1-10.4-3.2-20.3-5.3-30.4c-2.3-11.3-5.4-22.4-7.1-33.8
		c-2.8-20,3.1-38.7,14.3-52.6c12.2-15.1,30.6-24.7,51.1-24.7c16.4,0,30.8,5.1,43.5,15.3c1.8,1.4,2.1,2.5,1,4.6
		c-8.2,15.2-3.6,34.8,11,44.2c0.9,0.6,1.5,1.4,1.8,2.3c0.1,0.4,0.2,0.7,0.3,1.1c0.8,5,1.6,10,2.4,15c0.2,1,0.2,2.3,1.6,2.5
		c1.3,0.2,1.9-0.9,2.4-1.8c2.1-3.3,4.1-6.7,6.7-10.8c1.5,6.4,3,12,4,17.7c3.2,19.3,12.5,35.5,24.4,50.5c3.3,4.2,6.9,8.3,10.4,12.3
		c3.1,3.6,2,7.4-2.7,8.5c-19.2,4.3-38.4,8.6-57.6,12.9C162.4,196,151.3,198.5,140.1,200.9z"/>
	<path class="st2" d="M246.4,69.6c2.6-0.1,3.4,1.1,3.4,3.5c0,1,0.3,1.9,1.5,2.1c0.9-0.1,1.4-0.7,1.4-1.5c-0.1-2.8,1-4.5,4.1-4.2
		c0.9,0.1,1.7-0.5,1.6-1.6c-0.1-1.1-1-1.4-1.9-1.4c-2.5,0.1-3.8-0.8-3.7-3.5c0.1-1-0.3-2.1-1.5-2.1c-1.2,0-1.6,1.1-1.5,2.1
		c0.1,2.4-0.8,3.6-3.4,3.5c-1,0-2.1,0.2-2.2,1.4C244.1,69.4,245.4,69.6,246.4,69.6z"/>
	<path class="st2" d="M262.1,250.3c-3.2,0.3-4.3-1.3-4-4.2c0.1-0.9-0.2-1.8-1.4-1.8c-0.7,0.2-1.2,0.7-1.1,1.4c0.3,3.4-1.1,5-4.6,4.7
		c-0.8-0.1-1.5,0.4-1.4,1.4c0.1,0.9,1,1.2,1.7,1.1c2.9-0.2,4.5,0.9,4.2,4c-0.1,0.8,0.1,1.9,1.3,1.9c1.2,0,1.3-1.1,1.3-1.9
		c-0.2-2.9,1.1-4.2,4-4c0.8,0.1,1.9-0.1,1.9-1.3C264,250.5,263,250.3,262.1,250.3z"/>
	<path class="st2" d="M38.6,23.2c2.9-0.3,4.2,1,3.9,3.9c-0.1,0.8,0.1,1.9,1.2,2c1.4,0.1,1.5-1.1,1.4-2c-0.3-3,1.1-4.1,3.9-3.8
		c0.8,0.1,1.9-0.1,1.9-1.2c0-1.4-1.2-1.4-2.1-1.4c-2.7,0.2-4-0.9-3.8-3.7c0.1-0.9,0-2-1.4-2.2c-0.9,0.2-1.2,0.9-1.2,1.6
		c0.3,3.1-0.8,4.7-4.2,4.3c-0.8-0.1-1.9,0.2-1.8,1.4C36.8,23.1,37.8,23.3,38.6,23.2z"/>
	<path class="st2" d="M142.2,123.2c-18.1,0-30.9,11.9-32.3,28.5c-0.1,1.3-0.3,3,1.3,3.2c2.1,0.2,1.6-1.8,1.7-3
		c1.2-12.7,9.7-22.4,21.7-25c11.8-2.5,23.5,2.8,29.8,13.7c0.6,1.1,1.1,2.8,2.7,2c1.7-0.9,0.4-2.3-0.2-3.3
		C161.3,128.5,152.1,123.7,142.2,123.2z"/>
	<path class="st2" d="M99.2,113.7c-2.4,0.2-3.6,1.7-3.7,4.1c-0.1,2.3,1.9,4.1,4.1,4.1c2.1,0,4.1-2.2,4-4.3
		C103.5,115.5,101.3,113.5,99.2,113.7z"/>
	<path class="st2" d="M161.8,107.7c2.5,0.1,3.7-1.2,4-3.7c0-2.3-1-3.9-3.5-4.1c-2.5-0.2-4.3,1.2-4.3,3.6
		C158,106.1,159.2,107.6,161.8,107.7z"/>
	<path class="st2" d="M198.9,59.7c2.4,0.1,4.8-2.4,4.7-4.8c-0.1-2.5-2.5-4.6-5-4.5c-2.3,0.1-4.4,2.3-4.3,4.7
		C194.3,57.5,196.5,59.6,198.9,59.7z"/>
	<path class="st2" d="M185.3,59.7c2.5-0.3,4.2-1.6,4.3-4.3c0.1-2.6-2-4.9-4.4-5c-2.3,0-4.4,2.1-4.5,4.6
		C180.6,57.6,182.8,60,185.3,59.7z"/>
	<path class="st2" d="M212.8,59.8c2.3,0.1,4.6-2.1,4.6-4.5c0-2.6-2.2-4.9-4.6-4.8c-2.4,0.1-4.4,2.2-4.4,4.7
		C208.4,57.5,210.5,59.7,212.8,59.8z"/>
</g>
</svg>
